Coordinates
version=1
nRows=11
nColumns=40
inDegrees=yes

Units are S.I. units (second, meters, Newtons, ...)
Angles are in degrees.

endheader
time	pelvis_tilt	pelvis_list	pelvis_rotation	pelvis_tx	pelvis_ty	pelvis_tz	hip_flexion_r	hip_adduction_r	hip_rotation_r	knee_angle_r	knee_angle_r_beta	ankle_angle_r	subtalar_angle_r	mtp_angle_r	hip_flexion_l	hip_adduction_l	hip_rotation_l	knee_angle_l	knee_angle_l_beta	ankle_angle_l	subtalar_angle_l	mtp_angle_l	lumbar_extension	lumbar_bending	lumbar_rotation	arm_flex_r	arm_add_r	arm_rot_r	elbow_flex_r	pro_sup_r	wrist_flex_r	wrist_dev_r	arm_flex_l	arm_add_l	arm_rot_l	elbow_flex_l	pro_sup_l	wrist_flex_l	wrist_dev_l
     27.96328571	     -2.63043116	     -6.13028980	     -2.78606092	      1.07267720	      0.91309152	      0.41944128	     25.35014198	     -4.17285909	      0.42748357	     59.89457523	     59.89457523	      6.58899388	    -13.68825134	     -0.08940828	     19.52644736	     -4.35479255	     -3.09849546	     35.56833767	     35.56833767	     21.34900942	    -17.95075456	      7.63849772	    -11.23752477	      8.15557771	      2.52894057	      9.75441856	    -12.40607561	     -3.96590455	     25.39578752	     46.79370281	      0.00000000	      0.00000000	     19.19383283	    -13.88432763	     21.33058786	     34.84780478	     44.98761010	      0.00000000	      0.00000000
     27.98407143	     -2.61376124	     -6.07145171	     -3.27719643	      1.07225134	      0.91397663	      0.41940210	     26.06896322	     -3.99942432	      0.25813303	     58.54809377	     58.54809377	      6.77927023	    -14.17916547	     -0.05002701	     18.87639410	     -4.34744393	     -3.55310374	     35.05766813	     35.05766813	     21.48991177	    -17.96688466	      7.76591820	    -11.24014990	      8.30269183	      2.42267908	      6.14707669	    -12.57841256	     -4.07395545	     24.21861764	     46.81652401	      0.00000000	      0.00000000	     20.56626102	    -14.17294199	     20.47612505	     36.57667814	     45.12555474	      0.00000000	      0.00000000
     28.00485714	     -2.73054185	     -6.03113643	     -3.81943383	      1.07170144	      0.91535276	      0.41983730	     26.66120327	     -3.80088647	     -0.09516109	     56.37411821	     56.37411821	      6.71566074	    -14.46699519	     -0.98529007	     18.22100124	     -4.40388186	     -4.08441366	     34.24909515	     34.24909515	     21.41542698	    -17.91156891	      7.69188368	    -11.19797684	      8.45808687	      2.10978032	      2.32361462	    -12.66696298	     -4.69930868	     24.45955774	     46.81268953	      0.00000000	      0.00000000	     21.23747384	    -14.74843516	     18.21709482	     39.94448377	     45.43764024	      0.00000000	      0.00000000
     28.02564286	     -2.86192537	     -5.97936223	     -4.42531403	      1.07114856	      0.91730334	      0.42074209	     26.96384215	     -3.56192213	     -0.49859951	     53.42930386	     53.42930386	      6.61266862	    -14.40194577	     -2.42482538	     17.37864690	     -4.46147669	     -4.67409146	     33.06882578	     33.06882578	     21.13727705	    -17.86202567	      7.44671599	    -11.12008633	      8.58034376	      1.80782990	     -1.15790547	    -12.68274602	     -5.32628906	     24.40651117	     46.82408864	      0.00000000	      0.00000000	     22.10496188	    -15.29403026	     15.96771239	     42.80486436	     45.73478058	      0.00000000	      0.00000000
     28.04642857	     -3.01708636	     -5.91063067	     -5.10840025	      1.07051963	      0.91962276	      0.42213604	     27.06584404	     -3.28636626	     -0.92814291	     49.95222543	     49.95222543	      6.95056953	    -13.56850254	     -2.72818692	     16.44725310	     -4.52307696	     -5.35383740	     31.69262313	     31.69262313	     20.90363364	    -17.73378882	      7.61055644	    -11.01257687	      8.65613026	      1.80243266	     -4.27856476	    -12.67431997	     -5.51195974	     23.54644674	     46.84426407	      0.00000000	      0.00000000	     23.60612338	    -15.87239885	     15.07842606	     44.59747563	     45.86089649	      0.00000000	      0.00000000
     28.06721429	     -3.30648376	     -5.88076550	     -5.78442873	      1.06980895	      0.92192968	      0.42390565	     26.97757907	     -2.94821575	     -1.49618631	     45.78118844	     45.78118844	      6.54277489	    -12.55305864	     -4.67153875	     15.59354048	     -4.67584093	     -6.14302522	     30.15402107	     30.15402107	     20.23518295	    -17.61475024	      6.76680584	    -10.84924848	      8.78274126	      1.27952564	     -7.52427156	    -12.55517661	     -6.79984576	     24.81803486	     46.85127959	      0.00000000	      0.00000000	     23.85511977	    -16.88000371	     12.68753661	     48.80955380	     46.15095797	      0.00000000	      0.00000000
     28.08800000	     -3.53547408	     -5.78964375	     -6.58254605	      1.06910250	      0.92424806	      0.42614698	     26.69634386	     -2.59259690	     -1.91568277	     41.47774850	     41.47774850	      6.84415635	    -10.46998150	     -4.80931110	     14.61177783	     -4.75042827	     -6.94047368	     28.55628594	     28.55628594	     19.94562183	    -17.35520476	      6.89349721	    -10.67720157	      8.79733776	      1.44223222	    -10.18210486	    -12.48193067	     -7.05902155	     24.18784850	     46.87060737	      0.00000000	      0.00000000	     25.46483277	    -17.60146538	     11.79706728	     50.70434611	     46.27125374	      0.00000000	      0.00000000
     28.10878571	     -3.86080636	     -5.65855227	     -7.35027708	      1.06838006	      0.92612930	      0.42866099	     26.32331207	     -2.31060275	     -2.53083841	     36.94218920	     36.94218920	      6.78218027	     -7.85110832	     -5.43012180	     13.73799539	     -4.81368206	     -7.82900878	     26.91952609	     26.91952609	     19.15878645	    -17.18604155	      5.77965210	    -10.48788270	      8.80540188	      1.15451096	    -12.96730169	    -12.28443694	     -8.53083115	     25.69943607	     46.87949226	      0.00000000	      0.00000000	     25.80199458	    -18.73289177	      9.56914308	     55.21106405	     46.53387258	      0.00000000	      0.00000000
     28.12957143	     -4.23327992	     -5.55157494	     -8.11288613	      1.06768873	      0.92778306	      0.43156379	     25.81582754	     -1.81810199	     -2.82989695	     32.32515482	     32.32515482	      6.69399292	     -5.49251789	     -4.81227701	     12.97492252	     -4.91572131	     -8.67704208	     25.43717036	     25.43717036	     18.92283007	    -16.80166984	      5.92423878	    -10.09238884	      8.83745597	      1.11544518	    -14.87988433	    -12.04628477	     -8.71354998	     25.30530656	     46.88893558	      0.00000000	      0.00000000	     27.31447138	    -19.56205102	      8.85488869	     56.62724877	     46.62576350	      0.00000000	      0.00000000
     28.15035714	     -4.31772308	     -5.27186928	     -8.87698530	      1.06725415	      0.92907584	      0.43451856	     25.10495909	     -1.77527648	     -3.69360309	     28.25916079	     28.25916079	      7.06773545	     -1.53392027	     -3.38571913	     11.89080181	     -4.79032489	     -9.68016222	     23.90277272	     23.90277272	     18.09067626	    -16.59441328	      4.27636362	    -10.20093203	      8.63436863	      0.90109762	    -17.15471628	    -11.75310188	    -10.39614748	     27.39013936	     46.87852112	      0.00000000	      0.00000000	     27.59858216	    -20.71672777	      6.23102709	     61.62615892	     46.92016258	      0.00000000	      0.00000000
     28.17114286	     -4.49745336	     -5.03353763	     -9.60830474	      1.06689790	      0.92990951	      0.43783585	     24.38324206	     -1.46729565	     -4.05955721	     24.32653500	     24.32653500	      6.81929101	      1.12457648	     -2.29671492	     11.05086364	     -4.72661950	    -10.55594347	     22.68085075	     22.68085075	     17.92583489	    -16.21446461	      4.17857249	    -10.02217688	      8.50991156	      1.13673005	    -18.62127064	    -11.40619937	    -10.59870316	     27.27039181	     46.87759690	      0.00000000	      0.00000000	     29.20861915	    -21.41478014	      5.36992315	     63.37240880	     47.02703542	      0.00000000	      0.00000000
